<?xml version="1.0" encoding="UTF-8"?>
<svg width="638px" height="516px" viewBox="0 0 638 516" version="1.1" xmlns="http://www.w3.org/2000/svg" xmlns:xlink="http://www.w3.org/1999/xlink">
    <title>logo 2</title>
    <defs>
        <filter id="filter-1">
            <feColorMatrix in="SourceGraphic" type="matrix" values="0 0 0 0 0.007843 0 0 0 0 0.431373 0 0 0 0 0.000000 0 0 0 1.000000 0"></feColorMatrix>
        </filter>
        <filter x="-1.6%" y="-1.5%" width="103.3%" height="103.0%" filterUnits="objectBoundingBox" id="filter-2">
            <feOffset dx="0" dy="2" in="SourceAlpha" result="shadowOffsetOuter1"></feOffset>
            <feColorMatrix values="0 0 0 0 0.00784313725   0 0 0 0 0.431372549   0 0 0 0 0  0 0 0 1 0" type="matrix" in="shadowOffsetOuter1" result="shadowMatrixOuter1"></feColorMatrix>
            <feMerge>
                <feMergeNode in="shadowMatrixOuter1"></feMergeNode>
                <feMergeNode in="SourceGraphic"></feMergeNode>
            </feMerge>
        </filter>
    </defs>
    <g id="页面-1" stroke="none" stroke-width="1" fill="none" fill-rule="evenodd">
        <g id="logo" transform="translate(22.000000, 341.000000)" fill="#494368" fill-rule="nonzero">
            <path d="M50.9,0.1 C54.9,0.1 58.2,1.5 61,4.3 C63.8,7.1 65.2,10.5 65.2,14.4 L65.2,64 L14.5,64 C10.5,64 7.2,62.6 4.4,59.8 C1.6685244,57.1556004 0.14898676,53.5014742 0.2,49.7 L0.2,26.1 L53.3,26.1 L53.3,14.4 C53.3,13.7 53.1,13.2 52.6,12.7 C52.1,12.2 51.6,12 50.9,12 L0.2,12 L0.2,0.1 L50.9,0.1 Z M53.3,52.1 L53.3,38 L12.1,38 L12.1,49.7 C12.1,50.4 12.3,50.9 12.8,51.4 C13.3,51.9 13.8,52.1 14.5,52.1 L53.3,52.1 L53.3,52.1 Z M168,0.1 L180.7,0.1 L156.7,64 L147,64 L125.5,16.5 L105.2,64 L105,63.9 L105.1,64 L95.5,64 L70.4,0.1 L83,0.1 L100.3,42.5 L118.7,0.1 L132.3,0.1 L151.8,42.5 L168,0.1 Z M235.2,0.1 C239.2,0.1 242.5,1.5 245.3,4.3 C248.1,7.1 249.5,10.5 249.5,14.4 L249.5,38 L196.4,38 L196.4,49.7 C196.4,50.4 196.6,50.9 197.1,51.4 C197.6,51.9 198.1,52.1 198.8,52.1 L249.5,52.1 L249.5,64 L198.8,64 C194.8,64 191.5,62.6 188.7,59.8 C185.968524,57.1556004 184.448987,53.5014742 184.5,49.7 L184.5,14.4 C184.5,10.4 185.9,7.1 188.7,4.3 C191.5,1.5 194.9,0.1 198.8,0.1 L235.2,0.1 L235.2,0.1 Z M196.4,26.1 L237.6,26.1 L237.6,14.4 C237.6,13.7 237.4,13.2 236.9,12.7 C236.4,12.2 235.9,12 235.2,12 L198.8,12 C198.1,12 197.6,12.2 197.1,12.7 C196.6,13.2 196.4,13.7 196.4,14.4 L196.4,26.1 L196.4,26.1 Z M325.4,14.5 L325.4,16.9 L313.5,16.9 L313.5,14.5 C313.5,13.8 313.3,13.3 312.8,12.8 C312.3,12.3 311.8,12.1 311.1,12.1 L274.7,12.1 C274,12.1 273.5,12.3 273,12.8 C272.5,13.3 272.3,13.8 272.3,14.5 L272.3,23.8 C272.3,24.5 272.5,25 273,25.5 C273.5,26 274,26.2 274.7,26.2 L311.1,26.2 C315.1,26.2 318.4,27.6 321.2,30.4 C324,33.2 325.4,36.6 325.4,40.5 L325.4,49.8 C325.4,53.8 324,57.1 321.2,59.9 C318.5556,62.6314756 314.901474,64.1510132 311.1,64.1 L274.7,64.1 C270.7,64.1 267.4,62.7 264.6,59.9 C261.868524,57.2556004 260.348987,53.6014742 260.4,49.8 L260.4,47.4 L272.3,47.4 L272.3,49.8 C272.3,50.5 272.5,51 273,51.5 C273.5,52 274,52.2 274.7,52.2 L311.1,52.2 C311.8,52.2 312.3,52 312.8,51.5 C313.3,51 313.5,50.5 313.5,49.8 L313.5,40.5 C313.5,39.8 313.3,39.3 312.8,38.8 C312.3,38.3 311.8,38.1 311.1,38.1 L274.7,38.1 C270.7,38.1 267.4,36.7 264.6,33.9 C261.868524,31.2556004 260.348987,27.6014742 260.4,23.8 L260.4,14.5 C260.4,10.5 261.8,7.2 264.6,4.4 C267.4,1.6 270.8,0.2 274.7,0.2 L311.1,0.2 C315.1,0.2 318.4,1.6 321.2,4.4 C324,7.1 325.4,10.5 325.4,14.5 L325.4,14.5 Z M350.6,0.1 L387,0.1 C391,0.1 394.3,1.5 397.1,4.3 C399.9,7.1 401.3,10.5 401.3,14.4 L401.3,49.7 C401.3,53.7 399.9,57 397.1,59.8 C394.4556,62.5314756 390.801474,64.0510132 387,64 L350.6,64 C346.6,64 343.3,62.6 340.5,59.8 C337.768524,57.1556004 336.248987,53.5014742 336.3,49.7 L336.3,14.4 C336.3,10.4 337.7,7.1 340.5,4.3 C343.3,1.5 346.7,0.1 350.6,0.1 L350.6,0.1 Z M387,12 L350.6,12 C349.9,12 349.4,12.2 348.9,12.7 C348.4,13.2 348.2,13.7 348.2,14.4 L348.2,49.7 C348.2,50.4 348.4,50.9 348.9,51.4 C349.4,51.9 349.9,52.1 350.6,52.1 L387,52.1 C387.7,52.1 388.2,51.9 388.7,51.4 C389.2,50.9 389.4,50.4 389.4,49.7 L389.4,14.4 C389.4,13.7 389.2,13.2 388.7,12.7 C388.2,12.3 387.7,12 387,12 Z M494.5,0.1 C498.5,0.1 501.8,1.5 504.6,4.3 C507.4,7.1 508.8,10.5 508.8,14.4 L508.8,64 L497,64 L497,14.4 C497,13.7 496.8,13.2 496.3,12.7 C495.8,12.2 495.2,12 494.5,12 L469.3,12 C468.6,12 468.1,12.2 467.6,12.7 C467.1,13.2 466.9,13.7 466.9,14.4 L466.9,64 L455,64 L455,14.4 C455,13.7 454.8,13.2 454.3,12.7 C453.8,12.2 453.3,12 452.6,12 L427.3,12 C426.6,12 426.1,12.2 425.6,12.7 C425.1,13.2 424.9,13.7 424.9,14.4 L424.9,64 L413,64 L413,0.1 L494.5,0.1 Z M571,0.1 C575,0.1 578.3,1.5 581.1,4.3 C583.9,7.1 585.3,10.5 585.3,14.4 L585.3,38 L532.2,38 L532.2,49.7 C532.2,50.4 532.4,50.9 532.9,51.4 C533.4,51.9 533.9,52.1 534.6,52.1 L585.3,52.1 L585.3,64 L534.6,64 C530.6,64 527.3,62.6 524.5,59.8 C521.768524,57.1556004 520.248987,53.5014742 520.3,49.7 L520.3,14.4 C520.3,10.4 521.7,7.1 524.5,4.3 C527.3,1.5 530.7,0.1 534.6,0.1 L571,0.1 L571,0.1 Z M532.2,26.1 L573.4,26.1 L573.4,14.4 C573.4,13.7 573.2,13.2 572.7,12.7 C572.2,12.2 571.7,12 571,12 L534.6,12 C533.9,12 533.4,12.2 532.9,12.7 C532.4,13.2 532.2,13.7 532.2,14.4 L532.2,26.1 L532.2,26.1 Z" id="形状"></path>
            <g id="编组" transform="translate(116.000000, 74.000000)">
                <path d="M59.9,32.1 L59.9,77.1 L49.1,77.1 L49.1,32.1 C49.1,30.9 48.1,29.9 46.9,29.9 L13.9,29.9 C12.7,29.9 11.7,30.9 11.7,32.1 L11.7,77.1 L0.9,77.1 L0.9,19.1 L46.9,19.1 C54.0797017,19.1 59.9,24.9202983 59.9,32.1 L59.9,32.1 Z M115.2,19.1 C122.379702,19.1 128.2,24.9202983 128.2,32.1 L128.2,64.1 C128.2,71.2797017 122.379702,77.1 115.2,77.1 L82.2,77.1 C75.0202983,77.1 69.2,71.2797017 69.2,64.1 L69.2,32.1 C69.2,24.9202983 75.0202983,19.1 82.2,19.1 L115.2,19.1 L115.2,19.1 Z M82.2,29.9 C81,29.9 80,30.9 80,32.1 L80,64.1 C80,65.3 81,66.3 82.2,66.3 L115.2,66.3 C116.4,66.3 117.4,65.3 117.4,64.1 L117.4,32.1 C117.4,30.9 116.4,29.9 115.2,29.9 L82.2,29.9 Z M194.6,0.1 L194.6,77.1 L148.6,77.1 C141.420298,77.1 135.6,71.2797017 135.6,64.1 L135.6,32.1 C135.6,24.9202983 141.420298,19.1 148.6,19.1 L183.8,19.1 L183.8,0.1 L194.6,0.1 L194.6,0.1 Z M181.6,66.3 C182.8,66.3 183.8,65.3 183.8,64.1 L183.8,32.1 C183.8,30.9 182.8,29.9 181.6,29.9 L148.6,29.9 C147.4,29.9 146.4,30.9 146.4,32.1 L146.4,64.1 C146.4,65.3 147.4,66.3 148.6,66.3 L181.6,66.3 Z M262.6,32.1 L262.6,53.5 L214.4,53.5 L214.4,64.1 C214.4,65.3 215.4,66.3 216.6,66.3 L262.6,66.3 L262.6,77.1 L216.6,77.1 C209.420298,77.1 203.6,71.2797017 203.6,64.1 L203.6,32.1 C203.6,24.9202983 209.420298,19.1 216.6,19.1 L249.6,19.1 C256.779702,19.1 262.6,24.9202983 262.6,32.1 L262.6,32.1 Z M251.8,42.7 L251.8,32.1 C251.8,30.9 250.8,29.9 249.6,29.9 L216.6,29.9 C215.4,29.9 214.4,30.9 214.4,32.1 L214.4,42.7 L251.8,42.7 Z M283.9,77.1 L273.1,77.1 L273.1,66.3 L283.9,66.3 L283.9,77.1 Z" id="形状"></path>
                <path d="M308.2,55.1 L308.2,87.1 C308.2,94.2797017 302.379702,100.1 295.2,100.1 L270.4,100.1 L270.4,89.3 L295.2,89.3 C296.4,89.3 297.4,88.3 297.4,87.1 L297.4,19.3 L308.2,19.3 L308.2,55.1 L308.2,55.1 Z M308.2,0.1 L308.2,10.9 L297.4,10.9 L297.4,0.1 L308.2,0.1 Z M376.8,34.3 L366,34.3 L366,32.1 C366,30.9 365,29.9 363.8,29.9 L330.8,29.9 C329.6,29.9 328.6,30.9 328.6,32.1 L328.6,40.5 C328.6,41.7 329.6,42.7 330.8,42.7 L363.8,42.7 C370.979702,42.7 376.8,48.5202983 376.8,55.7 L376.8,64.1 C376.8,71.2797017 370.979702,77.1 363.8,77.1 L330.8,77.1 C323.620298,77.1 317.8,71.2797017 317.8,64.1 L317.8,61.9 L328.6,61.9 L328.6,64.1 C328.6,65.3 329.6,66.3 330.8,66.3 L363.8,66.3 C365,66.3 366,65.3 366,64.1 L366,55.7 C366,54.5 365,53.5 363.8,53.5 L330.8,53.5 C323.620298,53.5 317.8,47.6797017 317.8,40.5 L317.8,32.1 C317.8,24.9202983 323.620298,19.1 330.8,19.1 L363.8,19.1 C367.247814,19.1 370.554415,20.4696389 372.992388,22.9076118 C375.430361,25.3455848 376.8,28.6521856 376.8,32.1 L376.8,34.3 L376.8,34.3 Z" id="形状"></path>
            </g>
        </g>
        <g filter="url(#filter-1)" id="lego">
            <g filter="url(#filter-2)" transform="translate(196.000000, 27.000000)">
                <path d="M240.652174,81.7255424 C240.652174,89.6438452 234.944707,99.5454063 228.098152,103.505227 L144.827152,151.660507 C132.858717,158.581154 113.143957,158.582494 101.172848,151.660507 L17.9018477,103.505227 C11.0566304,99.5467455 5.34782594,89.6438452 5.34782594,81.7255424 L5.34782594,80.4828256 C5.34782594,72.5645228 11.0552933,62.6616225 17.9018477,58.7031406 L101.172848,10.5478609 C113.141283,3.62721357 132.856043,3.62587431 144.827152,10.5478609 L228.098152,58.7031406 C234.94337,62.6616225 240.652174,72.5631835 240.652174,80.4828256 L240.652174,81.7255424 Z M240.652174,116.504207 L240.652174,117.882176 C240.652174,125.800479 234.944707,135.70204 228.098152,139.661861 L144.827152,187.817141 C132.858717,194.737788 113.143957,194.739127 101.172848,187.817141 L17.9018477,139.661861 C11.0566304,135.703379 5.34782594,125.800479 5.34782594,117.882176 L5.34782594,116.504207 L5.34782594,98.2785849 C7.99499997,102.40312 11.4323152,105.949148 15.2279346,108.14399 L98.4989347,156.299269 C112.125196,164.178737 133.877478,164.177398 147.501065,156.299269 L230.772065,108.14399 C234.567685,105.949148 238.005,102.40312 240.652174,98.2785849 L240.652174,116.504207 Z M240.652174,153.999975 L240.652174,155.377945 C240.652174,163.296247 234.944707,173.197808 228.098152,177.157629 L144.827152,225.312909 C132.858717,232.233557 113.143957,232.234896 101.172848,225.312909 L17.9018477,177.157629 C11.0566304,173.199148 5.34782594,163.296247 5.34782594,155.377945 L5.34782594,153.999975 L5.34782594,134.435219 C7.99499997,138.559753 11.4323152,142.105782 15.2279346,144.300623 L98.4989347,192.455903 C112.125196,200.335371 133.877478,200.334032 147.501065,192.455903 L230.772065,144.300623 C234.567685,142.105782 238.005,138.559753 240.652174,134.435219 L240.652174,153.999975 Z M240.652174,187.517174 C240.652174,195.435477 234.944707,205.337039 228.098152,209.29686 L144.827152,257.452139 C132.858717,264.372787 113.143957,264.374126 101.172848,257.452139 L17.9018477,209.29686 C11.0566304,205.338378 5.34782594,195.435477 5.34782594,187.517174 L5.34782594,171.930987 C7.99499997,176.055522 11.4323152,179.60155 15.2279346,181.796392 L98.4989347,229.951671 C112.125196,237.831139 133.877478,237.8298 147.501065,229.951671 L230.772065,181.796392 C234.567685,179.60155 238.005,176.055522 240.652174,171.930987 L240.652174,187.517174 Z M245.994652,80.3475729 C245.934489,70.5437686 239.233663,58.9575761 230.772065,54.0643785 L147.501065,5.9090988 C133.874804,-1.97036908 112.122522,-1.96903008 98.4989347,5.9090988 L15.2279346,54.0643785 C6.76499983,58.9575761 0.0655108543,70.5451079 0.00534781413,80.3475729 L0,80.3475729 L0,80.4828256 L0,81.7255424 L0,116.504207 L0,117.882176 L0,153.999975 L0,155.377945 L0,187.517174 C0,197.349101 6.72756513,209.019659 15.2279346,213.935622 L98.4989347,262.090901 C112.125196,269.970369 133.877478,269.96903 147.501065,262.090901 L230.772065,213.935622 C239.273772,209.019659 246,197.347762 246,187.517174 L246,155.377945 L246,153.999975 L246,117.882176 L246,116.504207 L246,81.7255424 L246,80.4828256 L246,80.3475729 L245.994652,80.3475729 Z" id="形状" fill="#000000" fill-rule="nonzero"></path>
                <path d="M83.5714918,70.8458445 L83.5714918,71.5442358 C83.5714918,77.6514744 73.6243106,83.8592491 60.5006631,83.8592491 C47.3756892,83.8592491 37.4285082,77.6514744 37.4285082,71.5442358 L37.4285082,70.8458445 L37.4285082,70.789544 C37.4285082,64.683646 47.3756892,58.4745307 60.5006631,58.4745307 C73.6243106,58.4745307 83.5714918,64.683646 83.5714918,70.789544 L83.5714918,70.8458445 Z M83.5714918,87.2104557 C83.5714918,93.3176943 73.6243106,99.5268097 60.5006631,99.5268097 C47.3756892,99.5268097 37.4285082,93.3176943 37.4285082,87.2104557 L37.4285082,81.9584449 C42.6076738,86.4195709 50.9991159,89.3337801 60.5006631,89.3337801 C70.0008841,89.3337801 78.3936523,86.4195709 83.5714918,81.9584449 L83.5714918,87.2104557 Z M60.5006631,53 C44.7602438,53 32,60.9651473 32,70.789544 L32,70.8458445 L32,71.5442358 L32,87.2104557 C32,97.0361931 44.7602438,105 60.5006631,105 C76.2397562,105 89,97.0361931 89,87.2104557 L89,71.5442358 L89,70.8458445 L89,70.789544 C89,60.9651473 76.2397562,53 60.5006631,53 L60.5006631,53 Z" id="形状" fill="#000000" fill-rule="nonzero"></path>
                <path d="M208.571492,70.8458445 L208.571492,71.5442358 C208.571492,77.6514744 198.624311,83.8592491 185.500663,83.8592491 C172.375689,83.8592491 162.428508,77.6514744 162.428508,71.5442358 L162.428508,70.8458445 L162.428508,70.789544 C162.428508,64.683646 172.375689,58.4745307 185.500663,58.4745307 C198.624311,58.4745307 208.571492,64.683646 208.571492,70.789544 L208.571492,70.8458445 Z M208.571492,87.2104557 C208.571492,93.3176943 198.624311,99.5268097 185.500663,99.5268097 C172.375689,99.5268097 162.428508,93.3176943 162.428508,87.2104557 L162.428508,81.9584449 C167.607674,86.4195709 175.999116,89.3337801 185.500663,89.3337801 C195.000884,89.3337801 203.393652,86.4195709 208.571492,81.9584449 L208.571492,87.2104557 Z M185.500663,53 C169.760244,53 157,60.9651473 157,70.789544 L157,70.8458445 L157,71.5442358 L157,87.2104557 C157,97.0361931 169.760244,105 185.500663,105 C201.239756,105 214,97.0361931 214,87.2104557 L214,71.5442358 L214,70.8458445 L214,70.789544 C214,60.9651473 201.239756,53 185.500663,53 L185.500663,53 Z" id="形状" fill="#000000" fill-rule="nonzero"></path>
                <path d="M146.571492,33.0965148 L146.571492,33.7949061 C146.571492,39.9021447 136.624311,46.1099195 123.500663,46.1099195 C110.375689,46.1099195 100.428508,39.9021447 100.428508,33.7949061 L100.428508,33.0965148 L100.428508,32.7895443 C100.428508,26.6823057 110.375689,20.4731903 123.500663,20.4731903 C136.624311,20.4731903 146.571492,26.6823057 146.571492,32.7895443 L146.571492,33.0965148 Z M146.571492,49.2104557 C146.571492,55.316354 136.624311,61.525469 123.500663,61.525469 C110.375689,61.525469 100.428508,55.316354 100.428508,49.2104557 L100.428508,44.2091152 C105.607674,48.6702412 113.999116,51.5844504 123.500663,51.5844504 C133.000884,51.5844504 141.393652,48.6702412 146.571492,44.2091152 L146.571492,49.2104557 Z M123.500663,15 C107.760244,15 95,22.9651475 95,32.7895443 L95,33.0965148 L95,33.7949061 L95,49.2104557 C95,59.0348525 107.760244,67 123.500663,67 C139.239756,67 152,59.0348525 152,49.2104557 L152,33.7949061 L152,33.0965148 L152,32.7895443 C152,22.9651475 139.239756,15 123.500663,15 L123.500663,15 Z" id="形状" fill="#000000" fill-rule="nonzero"></path>
                <path d="M146.571492,112.096515 L146.571492,112.794906 C146.571492,118.902145 136.624311,125.10992 123.500663,125.10992 C110.375689,125.10992 100.428508,118.902145 100.428508,112.794906 L100.428508,112.096515 L100.428508,111.789544 C100.428508,105.682306 110.375689,99.4731903 123.500663,99.4731903 C136.624311,99.4731903 146.571492,105.682306 146.571492,111.789544 L146.571492,112.096515 Z M146.571492,128.210456 C146.571492,134.317695 136.624311,140.525469 123.500663,140.525469 C110.375689,140.525469 100.428508,134.317695 100.428508,128.210456 L100.428508,123.209115 C105.607674,127.670241 113.999116,130.58445 123.500663,130.58445 C133.000884,130.58445 141.393652,127.670241 146.571492,123.209115 L146.571492,128.210456 Z M123.500663,94 C107.760244,94 95,101.965148 95,111.789544 L95,112.096515 L95,112.794906 L95,128.210456 C95,138.034853 107.760244,146 123.500663,146 C139.239756,146 152,138.034853 152,128.210456 L152,112.794906 L152,112.096515 L152,111.789544 C152,101.965148 139.239756,94 123.500663,94 L123.500663,94 Z" id="形状" fill="#000000" fill-rule="nonzero"></path>
            </g>
        </g>
    </g>
</svg>