<?xml version="1.0" encoding="UTF-8"?>
<svg width="638px" height="516px" viewBox="0 0 638 516" version="1.1" xmlns="http://www.w3.org/2000/svg" xmlns:xlink="http://www.w3.org/1999/xlink">
    <title>logo 2</title>
    <defs>
        <filter id="filter-1">
            <feColorMatrix in="SourceGraphic" type="matrix" values="0 0 0 0 0.023529 0 0 0 0 0.431373 0 0 0 0 0.011765 0 0 0 1.000000 0"></feColorMatrix>
        </filter>
        <filter x="-1.8%" y="-1.7%" width="103.7%" height="103.4%" filterUnits="objectBoundingBox" id="filter-2">
            <feOffset dx="0" dy="2" in="SourceAlpha" result="shadowOffsetOuter1"></feOffset>
            <feColorMatrix values="0 0 0 0 0.0235294118   0 0 0 0 0.431372549   0 0 0 0 0.0117647059  0 0 0 1 0" type="matrix" in="shadowOffsetOuter1" result="shadowMatrixOuter1"></feColorMatrix>
            <feMerge>
                <feMergeNode in="shadowMatrixOuter1"></feMergeNode>
                <feMergeNode in="SourceGraphic"></feMergeNode>
            </feMerge>
        </filter>
    </defs>
    <g id="页面-1" stroke="none" stroke-width="1" fill="none" fill-rule="evenodd">
        <g id="logo" transform="translate(22.000000, 341.000000)" fill="#494368" fill-rule="nonzero">
            <path d="M50.9,0.1 C54.9,0.1 58.2,1.5 61,4.3 C63.8,7.1 65.2,10.5 65.2,14.4 L65.2,64 L14.5,64 C10.5,64 7.2,62.6 4.4,59.8 C1.6685244,57.1556004 0.14898676,53.5014742 0.2,49.7 L0.2,26.1 L53.3,26.1 L53.3,14.4 C53.3,13.7 53.1,13.2 52.6,12.7 C52.1,12.2 51.6,12 50.9,12 L0.2,12 L0.2,0.1 L50.9,0.1 Z M53.3,52.1 L53.3,38 L12.1,38 L12.1,49.7 C12.1,50.4 12.3,50.9 12.8,51.4 C13.3,51.9 13.8,52.1 14.5,52.1 L53.3,52.1 L53.3,52.1 Z M168,0.1 L180.7,0.1 L156.7,64 L147,64 L125.5,16.5 L105.2,64 L105,63.9 L105.1,64 L95.5,64 L70.4,0.1 L83,0.1 L100.3,42.5 L118.7,0.1 L132.3,0.1 L151.8,42.5 L168,0.1 Z M235.2,0.1 C239.2,0.1 242.5,1.5 245.3,4.3 C248.1,7.1 249.5,10.5 249.5,14.4 L249.5,38 L196.4,38 L196.4,49.7 C196.4,50.4 196.6,50.9 197.1,51.4 C197.6,51.9 198.1,52.1 198.8,52.1 L249.5,52.1 L249.5,64 L198.8,64 C194.8,64 191.5,62.6 188.7,59.8 C185.968524,57.1556004 184.448987,53.5014742 184.5,49.7 L184.5,14.4 C184.5,10.4 185.9,7.1 188.7,4.3 C191.5,1.5 194.9,0.1 198.8,0.1 L235.2,0.1 L235.2,0.1 Z M196.4,26.1 L237.6,26.1 L237.6,14.4 C237.6,13.7 237.4,13.2 236.9,12.7 C236.4,12.2 235.9,12 235.2,12 L198.8,12 C198.1,12 197.6,12.2 197.1,12.7 C196.6,13.2 196.4,13.7 196.4,14.4 L196.4,26.1 L196.4,26.1 Z M325.4,14.5 L325.4,16.9 L313.5,16.9 L313.5,14.5 C313.5,13.8 313.3,13.3 312.8,12.8 C312.3,12.3 311.8,12.1 311.1,12.1 L274.7,12.1 C274,12.1 273.5,12.3 273,12.8 C272.5,13.3 272.3,13.8 272.3,14.5 L272.3,23.8 C272.3,24.5 272.5,25 273,25.5 C273.5,26 274,26.2 274.7,26.2 L311.1,26.2 C315.1,26.2 318.4,27.6 321.2,30.4 C324,33.2 325.4,36.6 325.4,40.5 L325.4,49.8 C325.4,53.8 324,57.1 321.2,59.9 C318.5556,62.6314756 314.901474,64.1510132 311.1,64.1 L274.7,64.1 C270.7,64.1 267.4,62.7 264.6,59.9 C261.868524,57.2556004 260.348987,53.6014742 260.4,49.8 L260.4,47.4 L272.3,47.4 L272.3,49.8 C272.3,50.5 272.5,51 273,51.5 C273.5,52 274,52.2 274.7,52.2 L311.1,52.2 C311.8,52.2 312.3,52 312.8,51.5 C313.3,51 313.5,50.5 313.5,49.8 L313.5,40.5 C313.5,39.8 313.3,39.3 312.8,38.8 C312.3,38.3 311.8,38.1 311.1,38.1 L274.7,38.1 C270.7,38.1 267.4,36.7 264.6,33.9 C261.868524,31.2556004 260.348987,27.6014742 260.4,23.8 L260.4,14.5 C260.4,10.5 261.8,7.2 264.6,4.4 C267.4,1.6 270.8,0.2 274.7,0.2 L311.1,0.2 C315.1,0.2 318.4,1.6 321.2,4.4 C324,7.1 325.4,10.5 325.4,14.5 L325.4,14.5 Z M350.6,0.1 L387,0.1 C391,0.1 394.3,1.5 397.1,4.3 C399.9,7.1 401.3,10.5 401.3,14.4 L401.3,49.7 C401.3,53.7 399.9,57 397.1,59.8 C394.4556,62.5314756 390.801474,64.0510132 387,64 L350.6,64 C346.6,64 343.3,62.6 340.5,59.8 C337.768524,57.1556004 336.248987,53.5014742 336.3,49.7 L336.3,14.4 C336.3,10.4 337.7,7.1 340.5,4.3 C343.3,1.5 346.7,0.1 350.6,0.1 L350.6,0.1 Z M387,12 L350.6,12 C349.9,12 349.4,12.2 348.9,12.7 C348.4,13.2 348.2,13.7 348.2,14.4 L348.2,49.7 C348.2,50.4 348.4,50.9 348.9,51.4 C349.4,51.9 349.9,52.1 350.6,52.1 L387,52.1 C387.7,52.1 388.2,51.9 388.7,51.4 C389.2,50.9 389.4,50.4 389.4,49.7 L389.4,14.4 C389.4,13.7 389.2,13.2 388.7,12.7 C388.2,12.3 387.7,12 387,12 Z M494.5,0.1 C498.5,0.1 501.8,1.5 504.6,4.3 C507.4,7.1 508.8,10.5 508.8,14.4 L508.8,64 L497,64 L497,14.4 C497,13.7 496.8,13.2 496.3,12.7 C495.8,12.2 495.2,12 494.5,12 L469.3,12 C468.6,12 468.1,12.2 467.6,12.7 C467.1,13.2 466.9,13.7 466.9,14.4 L466.9,64 L455,64 L455,14.4 C455,13.7 454.8,13.2 454.3,12.7 C453.8,12.2 453.3,12 452.6,12 L427.3,12 C426.6,12 426.1,12.2 425.6,12.7 C425.1,13.2 424.9,13.7 424.9,14.4 L424.9,64 L413,64 L413,0.1 L494.5,0.1 Z M571,0.1 C575,0.1 578.3,1.5 581.1,4.3 C583.9,7.1 585.3,10.5 585.3,14.4 L585.3,38 L532.2,38 L532.2,49.7 C532.2,50.4 532.4,50.9 532.9,51.4 C533.4,51.9 533.9,52.1 534.6,52.1 L585.3,52.1 L585.3,64 L534.6,64 C530.6,64 527.3,62.6 524.5,59.8 C521.768524,57.1556004 520.248987,53.5014742 520.3,49.7 L520.3,14.4 C520.3,10.4 521.7,7.1 524.5,4.3 C527.3,1.5 530.7,0.1 534.6,0.1 L571,0.1 L571,0.1 Z M532.2,26.1 L573.4,26.1 L573.4,14.4 C573.4,13.7 573.2,13.2 572.7,12.7 C572.2,12.2 571.7,12 571,12 L534.6,12 C533.9,12 533.4,12.2 532.9,12.7 C532.4,13.2 532.2,13.7 532.2,14.4 L532.2,26.1 L532.2,26.1 Z" id="形状"></path>
            <g id="编组" transform="translate(116.000000, 74.000000)">
                <path d="M59.9,32.1 L59.9,77.1 L49.1,77.1 L49.1,32.1 C49.1,30.9 48.1,29.9 46.9,29.9 L13.9,29.9 C12.7,29.9 11.7,30.9 11.7,32.1 L11.7,77.1 L0.9,77.1 L0.9,19.1 L46.9,19.1 C54.0797017,19.1 59.9,24.9202983 59.9,32.1 L59.9,32.1 Z M115.2,19.1 C122.379702,19.1 128.2,24.9202983 128.2,32.1 L128.2,64.1 C128.2,71.2797017 122.379702,77.1 115.2,77.1 L82.2,77.1 C75.0202983,77.1 69.2,71.2797017 69.2,64.1 L69.2,32.1 C69.2,24.9202983 75.0202983,19.1 82.2,19.1 L115.2,19.1 L115.2,19.1 Z M82.2,29.9 C81,29.9 80,30.9 80,32.1 L80,64.1 C80,65.3 81,66.3 82.2,66.3 L115.2,66.3 C116.4,66.3 117.4,65.3 117.4,64.1 L117.4,32.1 C117.4,30.9 116.4,29.9 115.2,29.9 L82.2,29.9 Z M194.6,0.1 L194.6,77.1 L148.6,77.1 C141.420298,77.1 135.6,71.2797017 135.6,64.1 L135.6,32.1 C135.6,24.9202983 141.420298,19.1 148.6,19.1 L183.8,19.1 L183.8,0.1 L194.6,0.1 L194.6,0.1 Z M181.6,66.3 C182.8,66.3 183.8,65.3 183.8,64.1 L183.8,32.1 C183.8,30.9 182.8,29.9 181.6,29.9 L148.6,29.9 C147.4,29.9 146.4,30.9 146.4,32.1 L146.4,64.1 C146.4,65.3 147.4,66.3 148.6,66.3 L181.6,66.3 Z M262.6,32.1 L262.6,53.5 L214.4,53.5 L214.4,64.1 C214.4,65.3 215.4,66.3 216.6,66.3 L262.6,66.3 L262.6,77.1 L216.6,77.1 C209.420298,77.1 203.6,71.2797017 203.6,64.1 L203.6,32.1 C203.6,24.9202983 209.420298,19.1 216.6,19.1 L249.6,19.1 C256.779702,19.1 262.6,24.9202983 262.6,32.1 L262.6,32.1 Z M251.8,42.7 L251.8,32.1 C251.8,30.9 250.8,29.9 249.6,29.9 L216.6,29.9 C215.4,29.9 214.4,30.9 214.4,32.1 L214.4,42.7 L251.8,42.7 Z M283.9,77.1 L273.1,77.1 L273.1,66.3 L283.9,66.3 L283.9,77.1 Z" id="形状"></path>
                <path d="M308.2,55.1 L308.2,87.1 C308.2,94.2797017 302.379702,100.1 295.2,100.1 L270.4,100.1 L270.4,89.3 L295.2,89.3 C296.4,89.3 297.4,88.3 297.4,87.1 L297.4,19.3 L308.2,19.3 L308.2,55.1 L308.2,55.1 Z M308.2,0.1 L308.2,10.9 L297.4,10.9 L297.4,0.1 L308.2,0.1 Z M376.8,34.3 L366,34.3 L366,32.1 C366,30.9 365,29.9 363.8,29.9 L330.8,29.9 C329.6,29.9 328.6,30.9 328.6,32.1 L328.6,40.5 C328.6,41.7 329.6,42.7 330.8,42.7 L363.8,42.7 C370.979702,42.7 376.8,48.5202983 376.8,55.7 L376.8,64.1 C376.8,71.2797017 370.979702,77.1 363.8,77.1 L330.8,77.1 C323.620298,77.1 317.8,71.2797017 317.8,64.1 L317.8,61.9 L328.6,61.9 L328.6,64.1 C328.6,65.3 329.6,66.3 330.8,66.3 L363.8,66.3 C365,66.3 366,65.3 366,64.1 L366,55.7 C366,54.5 365,53.5 363.8,53.5 L330.8,53.5 C323.620298,53.5 317.8,47.6797017 317.8,40.5 L317.8,32.1 C317.8,24.9202983 323.620298,19.1 330.8,19.1 L363.8,19.1 C367.247814,19.1 370.554415,20.4696389 372.992388,22.9076118 C375.430361,25.3455848 376.8,28.6521856 376.8,32.1 L376.8,34.3 L376.8,34.3 Z" id="形状"></path>
            </g>
        </g>
        <g filter="url(#filter-1)" id="lego">
            <g filter="url(#filter-2)" transform="translate(210.000000, 52.000000)">
                <path d="M213.26087,72.5771608 C213.26087,79.6090864 208.203033,88.4022638 202.135761,91.9188211 L128.342761,134.683584 C117.736587,140.829533 100.265783,140.830722 89.6572391,134.683584 L15.864239,91.9188211 C9.79815213,88.4034531 4.7391303,79.6090864 4.7391303,72.5771608 L4.7391303,71.4735541 C4.7391303,64.4416285 9.79696723,55.6472618 15.864239,52.1318935 L89.6572391,9.36713018 C100.263413,3.2211822 117.734217,3.21999286 128.342761,9.36713018 L202.135761,52.1318935 C208.201848,55.6472618 213.26087,64.4404391 213.26087,71.4735541 L213.26087,72.5771608 Z M213.26087,103.462691 L213.26087,104.68641 C213.26087,111.718336 208.203033,120.511513 202.135761,124.028071 L128.342761,166.792834 C117.736587,172.938782 100.265783,172.939971 89.6572391,166.792834 L15.864239,124.028071 C9.79815213,120.512702 4.7391303,111.718336 4.7391303,104.68641 L4.7391303,103.462691 L4.7391303,87.2772507 C7.08499997,90.9400839 10.1310761,94.0891687 13.4946737,96.038319 L87.2876739,138.803082 C99.3629782,145.80052 118.639391,145.799331 130.712326,138.803082 L204.505326,96.038319 C207.868924,94.0891687 210.915,90.9400839 213.26087,87.2772507 L213.26087,103.462691 Z M213.26087,136.761172 L213.26087,137.984891 C213.26087,145.016817 208.203033,153.809994 202.135761,157.326551 L128.342761,200.091315 C117.736587,206.237263 100.265783,206.238452 89.6572391,200.091315 L15.864239,157.326551 C9.79815213,153.811183 4.7391303,145.016817 4.7391303,137.984891 L4.7391303,136.761172 L4.7391303,119.3865 C7.08499997,123.049333 10.1310761,126.198418 13.4946737,128.147569 L87.2876739,170.912332 C99.3629782,177.909769 118.639391,177.90858 130.712326,170.912332 L204.505326,128.147569 C207.868924,126.198418 210.915,123.049333 213.26087,119.3865 L213.26087,136.761172 Z M213.26087,166.526446 C213.26087,173.558372 208.203033,182.351549 202.135761,185.868107 L128.342761,228.63287 C117.736587,234.778818 100.265783,234.780007 89.6572391,228.63287 L15.864239,185.868107 C9.79815213,182.352738 4.7391303,173.558372 4.7391303,166.526446 L4.7391303,152.684981 C7.08499997,156.347814 10.1310761,159.496899 13.4946737,161.446049 L87.2876739,204.210812 C99.3629782,211.208251 118.639391,211.207061 130.712326,204.210812 L204.505326,161.446049 C207.868924,159.496899 210.915,156.347814 213.26087,152.684981 L213.26087,166.526446 Z M217.995261,71.3534416 C217.941946,62.6470781 212.003815,52.3578474 204.505326,48.0123958 L130.712326,5.24763251 C118.637022,-1.74980538 99.3606086,-1.74861627 87.2876739,5.24763251 L13.4946737,48.0123958 C5.99499985,52.3578474 0.0580543343,62.6482675 0.00473911984,71.3534416 L0,71.3534416 L0,71.4735541 L0,72.5771608 L0,103.462691 L0,104.68641 L0,136.761172 L0,137.984891 L0,166.526446 C0,175.257783 5.96182601,185.621936 13.4946737,189.987604 L87.2876739,232.752368 C99.3629782,239.749805 118.639391,239.748616 130.712326,232.752368 L204.505326,189.987604 C212.039359,185.621936 218,175.256594 218,166.526446 L218,137.984891 L218,136.761172 L218,104.68641 L218,103.462691 L218,72.5771608 L218,71.4735541 L218,71.3534416 L217.995261,71.3534416 Z" id="形状" fill="#000000" fill-rule="nonzero"></path>
                <path d="M74.1429137,62.7867086 L74.1429137,63.4045162 C74.1429137,68.8070735 65.2428042,74.2985665 53.5005933,74.2985665 C41.7571956,74.2985665 32.8570863,68.8070735 32.8570863,63.4045162 L32.8570863,62.7867086 L32.8570863,62.7369044 C32.8570863,57.335533 41.7571956,51.8428541 53.5005933,51.8428541 C65.2428042,51.8428541 74.1429137,57.335533 74.1429137,62.7369044 L74.1429137,62.7867086 Z M74.1429137,77.2630954 C74.1429137,82.6656527 65.2428042,88.1583316 53.5005933,88.1583316 C41.7571956,88.1583316 32.8570863,82.6656527 32.8570863,77.2630954 L32.8570863,72.6170858 C37.4910766,76.5634666 44.999209,79.1414208 53.5005933,79.1414208 C62.000791,79.1414208 69.51011,76.5634666 74.1429137,72.6170858 L74.1429137,77.2630954 Z M53.5005933,47 C39.4170603,47 28,54.0460918 28,62.7369044 L28,62.7867086 L28,63.4045162 L28,77.2630954 C28,85.9550939 39.4170603,93 53.5005933,93 C67.5829397,93 79,85.9550939 79,77.2630954 L79,63.4045162 L79,62.7867086 L79,62.7369044 C79,54.0460918 67.5829397,47 53.5005933,47 L53.5005933,47 Z" id="形状" fill="#000000" fill-rule="nonzero"></path>
                <path d="M185.142914,62.7867086 L185.142914,63.4045162 C185.142914,68.8070735 176.242804,74.2985665 164.500593,74.2985665 C152.757196,74.2985665 143.857086,68.8070735 143.857086,63.4045162 L143.857086,62.7867086 L143.857086,62.7369044 C143.857086,57.335533 152.757196,51.8428541 164.500593,51.8428541 C176.242804,51.8428541 185.142914,57.335533 185.142914,62.7369044 L185.142914,62.7867086 Z M185.142914,77.2630954 C185.142914,82.6656527 176.242804,88.1583316 164.500593,88.1583316 C152.757196,88.1583316 143.857086,82.6656527 143.857086,77.2630954 L143.857086,72.6170858 C148.491077,76.5634666 155.999209,79.1414208 164.500593,79.1414208 C173.000791,79.1414208 180.51011,76.5634666 185.142914,72.6170858 L185.142914,77.2630954 Z M164.500593,47 C150.41706,47 139,54.0460918 139,62.7369044 L139,62.7867086 L139,63.4045162 L139,77.2630954 C139,85.9550939 150.41706,93 164.500593,93 C178.58294,93 190,85.9550939 190,77.2630954 L190,63.4045162 L190,62.7867086 L190,62.7369044 C190,54.0460918 178.58294,47 164.500593,47 L164.500593,47 Z" id="形状" fill="#000000" fill-rule="nonzero"></path>
                <path d="M130.142914,29.0084554 L130.142914,29.6262631 C130.142914,35.0288203 121.242804,40.5203134 109.500593,40.5203134 C97.7571958,40.5203134 88.8570865,35.0288203 88.8570865,29.6262631 L88.8570865,29.0084554 L88.8570865,28.7369046 C88.8570865,23.3343473 97.7571958,17.8416684 109.500593,17.8416684 C121.242804,17.8416684 130.142914,23.3343473 130.142914,28.7369046 L130.142914,29.0084554 Z M130.142914,43.2630954 C130.142914,48.664467 121.242804,54.1571457 109.500593,54.1571457 C97.7571958,54.1571457 88.8570865,48.664467 88.8570865,43.2630954 L88.8570865,38.8388327 C93.4910768,42.7852134 100.999209,45.3631677 109.500593,45.3631677 C118.000791,45.3631677 125.51011,42.7852134 130.142914,38.8388327 L130.142914,43.2630954 Z M109.500593,13 C95.4170604,13 84,20.046092 84,28.7369046 L84,29.0084554 L84,29.6262631 L84,43.2630954 C84,51.953908 95.4170604,59 109.500593,59 C123.58294,59 135,51.953908 135,43.2630954 L135,29.6262631 L135,29.0084554 L135,28.7369046 C135,20.046092 123.58294,13 109.500593,13 L109.500593,13 Z" id="形状" fill="#000000" fill-rule="nonzero"></path>
                <path d="M130.142914,100.008455 L130.142914,100.626263 C130.142914,106.028821 121.242804,111.520314 109.500593,111.520314 C97.7571958,111.520314 88.8570865,106.028821 88.8570865,100.626263 L88.8570865,100.008455 L88.8570865,99.7369046 C88.8570865,94.3343473 97.7571958,88.8416684 109.500593,88.8416684 C121.242804,88.8416684 130.142914,94.3343473 130.142914,99.7369046 L130.142914,100.008455 Z M130.142914,114.263096 C130.142914,119.665653 121.242804,125.157146 109.500593,125.157146 C97.7571958,125.157146 88.8570865,119.665653 88.8570865,114.263096 L88.8570865,109.838833 C93.4910768,113.785214 100.999209,116.363168 109.500593,116.363168 C118.000791,116.363168 125.51011,113.785214 130.142914,109.838833 L130.142914,114.263096 Z M109.500593,84 C95.4170604,84 84,91.046092 84,99.7369046 L84,100.008455 L84,100.626263 L84,114.263096 C84,122.953908 95.4170604,130 109.500593,130 C123.58294,130 135,122.953908 135,114.263096 L135,100.626263 L135,100.008455 L135,99.7369046 C135,91.046092 123.58294,84 109.500593,84 L109.500593,84 Z" id="形状" fill="#000000" fill-rule="nonzero"></path>
            </g>
        </g>
    </g>
</svg>